<svg width="24" height="24" viewBox="0 0 24 24" fill="none" xmlns="http://www.w3.org/2000/svg">
<g clip-path="url(#clip0_545_2287)">
<path d="M12 0.375C9.7008 0.375 7.45322 1.05679 5.5415 2.33416C3.62978 3.61153 2.13977 5.42711 1.25991 7.5513C0.380037 9.67549 0.149823 12.0129 0.598376 14.2679C1.04693 16.5229 2.1541 18.5943 3.77989 20.2201C5.40567 21.8459 7.47705 22.9531 9.73208 23.4016C11.9871 23.8502 14.3245 23.62 16.4487 22.7401C18.5729 21.8602 20.3885 20.3702 21.6658 18.4585C22.9432 16.5468 23.625 14.2992 23.625 12C23.6217 8.91785 22.3959 5.96288 20.2165 3.78348C18.0371 1.60407 15.0821 0.378255 12 0.375ZM16.2096 14.9442C16.2927 15.0273 16.3586 15.126 16.4035 15.2345C16.4485 15.3431 16.4717 15.4594 16.4717 15.5769C16.4717 15.6944 16.4485 15.8108 16.4035 15.9193C16.3586 16.0279 16.2927 16.1265 16.2096 16.2096C16.1265 16.2927 16.0279 16.3586 15.9193 16.4035C15.8108 16.4485 15.6944 16.4716 15.5769 16.4716C15.4594 16.4716 15.3431 16.4485 15.2345 16.4035C15.126 16.3586 15.0273 16.2927 14.9443 16.2096L12 13.2642L9.05575 16.2096C8.97267 16.2927 8.87403 16.3586 8.76548 16.4035C8.65692 16.4485 8.54058 16.4716 8.42308 16.4716C8.30558 16.4716 8.18924 16.4485 8.08068 16.4035C7.97213 16.3586 7.87349 16.2927 7.79041 16.2096C7.70733 16.1265 7.64142 16.0279 7.59646 15.9193C7.55149 15.8108 7.52835 15.6944 7.52835 15.5769C7.52835 15.4594 7.55149 15.3431 7.59646 15.2345C7.64142 15.126 7.70733 15.0273 7.79041 14.9442L10.7358 12L7.79041 9.05574C7.62262 8.88795 7.52835 8.66037 7.52835 8.42307C7.52835 8.18577 7.62262 7.9582 7.79041 7.7904C7.95821 7.62261 8.18578 7.52834 8.42308 7.52834C8.66038 7.52834 8.88795 7.62261 9.05575 7.7904L12 10.7358L14.9443 7.7904C15.0273 7.70732 15.126 7.64141 15.2345 7.59645C15.3431 7.55149 15.4594 7.52834 15.5769 7.52834C15.6944 7.52834 15.8108 7.55149 15.9193 7.59645C16.0279 7.64141 16.1265 7.70732 16.2096 7.7904C16.2927 7.87349 16.3586 7.97212 16.4035 8.08067C16.4485 8.18923 16.4717 8.30557 16.4717 8.42307C16.4717 8.54057 16.4485 8.65692 16.4035 8.76547C16.3586 8.87402 16.2927 8.97266 16.2096 9.05574L13.2642 12L16.2096 14.9442Z" fill="#EB5757"/>
</g>
<defs>
<clipPath id="clip0_545_2287">
<rect width="24" height="24" fill="white"/>
</clipPath>
</defs>
</svg>
